<svg width="68" height="56" viewBox="0 0 68 56" fill="none" xmlns="http://www.w3.org/2000/svg">
<g clip-path="url(#clip0_1_6)">
<path d="M38.6218 17.0343L37.3295 16.0246C37.1275 15.8572 36.8691 15.7781 36.6105 15.8046C36.3519 15.831 36.114 15.9609 35.9484 16.1659L18.063 37.1886L18.3392 37.5017L22.7686 33.3213C22.621 33.2605 22.4989 33.1487 22.4234 33.0053C22.348 32.8619 22.324 32.696 22.3557 32.5364C22.3873 32.3768 22.4726 32.2336 22.5967 32.1316C22.7208 32.0297 22.8759 31.9755 23.035 31.9784C23.1785 31.9784 23.3182 32.0254 23.4336 32.1127C23.549 32.1999 23.634 32.3227 23.6762 32.4631L29.5163 26.9196C29.6058 26.8459 29.7172 26.8056 29.832 26.8056C29.9469 26.8056 30.0583 26.8459 30.1477 26.9196L30.4437 27.1418C30.5438 27.2152 30.6671 27.2476 30.7895 27.2327C30.9118 27.2177 31.0242 27.1565 31.1046 27.061L38.7402 18.2965C38.8214 18.2095 38.8833 18.1056 38.9217 17.9919C38.9601 17.8782 38.9742 17.7574 38.963 17.6377C38.9518 17.5179 38.9155 17.4021 38.8566 17.2979C38.7977 17.1938 38.7177 17.1039 38.6218 17.0343V17.0343Z" fill="#303030"/>
<path d="M47.0269 22.9514C43.1129 25.8019 38.7282 27.9056 34.0839 29.1613C29.4744 30.3612 24.7576 31.0784 20.0064 31.3019C20.1021 32.0191 20.2741 32.7233 20.5194 33.4022C23.2027 35.8861 43.4064 31.6452 47.3524 26.7379C48.1909 25.7181 47.0269 22.9514 47.0269 22.9514ZM23.035 33.3214C22.9023 33.3214 22.7726 33.2811 22.6623 33.2057C22.552 33.1302 22.466 33.023 22.4152 32.8975C22.3645 32.7721 22.3512 32.634 22.3771 32.5008C22.4029 32.3676 22.4668 32.2453 22.5606 32.1493C22.6545 32.0533 22.774 31.9879 22.9041 31.9614C23.0342 31.9349 23.1691 31.9485 23.2917 32.0004C23.4143 32.0524 23.519 32.1404 23.5928 32.2533C23.6665 32.3662 23.7058 32.499 23.7058 32.6348C23.7071 32.7253 23.6907 32.8152 23.6575 32.8992C23.6242 32.9831 23.5749 33.0593 23.5123 33.1233C23.4497 33.1874 23.3753 33.2379 23.2933 33.2719C23.2113 33.3059 23.1234 33.3228 23.035 33.3214V33.3214Z" fill="#303030"/>
<path d="M3.94623 21.4972L4.10407 20.8005L6.669 21.3962C6.8806 21.7963 7.01144 22.2358 7.05373 22.6887C7.10269 23.1683 7.07268 23.653 6.96495 24.1225C6.83725 24.774 6.5447 25.3799 6.11655 25.8794C5.70921 26.3511 5.18398 26.7002 4.59733 26.8892C3.99269 27.08 3.3496 27.1044 2.73283 26.9599C2.1147 26.8232 1.54494 26.5159 1.08536 26.0713C0.632818 25.6442 0.307859 25.0945 0.148177 24.486C-0.0289659 23.825 -0.0289659 23.1275 0.148177 22.4665C0.254205 21.9718 0.44455 21.5002 0.710487 21.0731C0.962183 20.6847 1.30026 20.3628 1.69699 20.134L2.05214 20.6894C1.71209 20.9031 1.4202 21.1882 1.19573 21.5258C0.971264 21.8635 0.819325 22.2461 0.749947 22.6483C0.627607 23.1706 0.637795 23.7164 0.779542 24.2336C0.912099 24.7247 1.17503 25.1685 1.53915 25.5159C1.91341 25.8862 2.38166 26.1416 2.89067 26.253C3.38425 26.3949 3.90645 26.3949 4.40003 26.253C4.87285 26.0933 5.29752 25.8116 5.63316 25.4352C5.97809 25.0285 6.21579 24.5385 6.32372 24.0114C6.48603 23.3721 6.44455 22.6964 6.20534 22.0828L3.94623 21.4972Z" fill="#303030"/>
<path d="M9.52964 15.1461L7.23107 18.2864L8.21758 20.0938L7.76379 20.7198L4.11371 13.9041L4.53791 13.3083L11.9663 14.9441L11.5027 15.5702L9.52964 15.1461ZM8.87854 14.9845L4.93251 14.0757L6.90553 17.7007L8.87854 14.9845Z" fill="#303030"/>
<path d="M8.8786 8.63334L9.47051 8.17896L13.2291 13.3286L16.3267 10.9557L16.7016 11.4707L13.0219 14.2879L8.8786 8.63334Z" fill="#303030"/>
<path d="M15.0936 4.42255L15.7545 4.11963L18.3589 9.95591L21.8807 8.32013L22.1372 8.90578L17.9544 10.8546L15.0936 4.42255Z" fill="#303030"/>
<path d="M28.0957 6.74504L28.2437 7.38117L23.4888 8.52217L21.9103 1.63577L26.5272 0.535156L26.6653 1.16119L22.7193 2.10025L23.2816 4.54381L26.7541 3.70573L26.9021 4.33177L23.4197 5.15975L24.0116 7.71438L28.0957 6.74504Z" fill="#303030"/>
<path d="M34.8731 6.99757L33.2256 4.77615C33.0416 4.78657 32.8572 4.78657 32.6732 4.77615L30.8185 4.83674L30.8876 7.07835H30.1576L29.9307 0.0101965L32.5548 9.90987e-05C33.2967 -0.0700353 34.0386 0.134144 34.6462 0.575649C34.9022 0.786678 35.108 1.05448 35.2482 1.35883C35.3883 1.66319 35.4591 1.99615 35.4551 2.33259C35.4839 2.83159 35.356 3.32694 35.0901 3.74622C34.8066 4.14866 34.4061 4.44907 33.9458 4.6045L35.6721 6.96728L34.8731 6.99757ZM34.1825 3.67554C34.3598 3.50928 34.4974 3.30353 34.5847 3.07417C34.6719 2.84481 34.7064 2.59799 34.6856 2.35279C34.6907 2.10628 34.641 1.86182 34.5401 1.6379C34.4393 1.41398 34.29 1.21647 34.1036 1.06032C33.6489 0.744759 33.1021 0.598609 32.5548 0.646331L30.6804 0.717012L30.7988 4.25109L32.6337 4.19051C33.1932 4.2117 33.742 4.02924 34.1825 3.67554V3.67554Z" fill="#303030"/>
<path d="M40.0917 5.11937L39.7366 7.53264L39.0164 7.42157L39.3814 5.04868L37.3394 0L38.1088 0.121168L39.855 4.42265L42.8145 0.858276L43.505 1.00974L40.0917 5.11937Z" fill="#303030"/>
<path d="M49.8482 4.69524L50.7065 5.83624L50.3316 6.13916L49.4734 4.96787L48.9308 6.29062L48.5164 6.10887L49.0689 4.78611L47.6483 4.97796V4.49329L49.0492 4.33173L48.181 3.19073L48.5658 2.88781L49.3254 4.03891L49.8581 2.70605L50.2823 2.88781L49.7792 4.24085L51.1997 4.03891V4.53368L49.8482 4.69524Z" fill="#303030"/>
<path d="M53.1432 12.8336C52.9102 12.466 52.7649 12.0475 52.719 11.6119L53.301 11.3493C53.3447 11.7496 53.4726 12.1354 53.6759 12.4802C53.8963 12.8669 54.1838 13.2091 54.5243 13.49C54.8759 13.8346 55.3246 14.0571 55.8068 14.1261C55.981 14.1426 56.1565 14.1154 56.3181 14.0468C56.4797 13.9781 56.6225 13.8702 56.7341 13.7323C56.8159 13.6399 56.8783 13.5313 56.9173 13.4131C56.9563 13.295 56.9712 13.1699 56.961 13.0457C56.9284 12.7996 56.8478 12.5627 56.7242 12.349C56.5388 12.039 56.338 11.7391 56.1224 11.4503C55.8598 11.0981 55.6224 10.7269 55.4122 10.3396C55.2515 10.0497 55.1633 9.72363 55.1557 9.39043C55.155 9.01625 55.2924 8.6556 55.5404 8.38069C55.7554 8.11425 56.0391 7.91485 56.3592 7.80514C56.7169 7.69939 57.0965 7.69939 57.4542 7.80514C57.9151 7.95941 58.3411 8.20661 58.7071 8.53215C59.0108 8.79072 59.2795 9.08954 59.5062 9.42072C59.7157 9.72785 59.8725 10.0693 59.9698 10.4305L59.4075 10.7334C59.3094 10.3968 59.1632 10.0769 58.9735 9.78423C58.7845 9.52285 58.5622 9.28854 58.3125 9.08751C57.9661 8.74445 57.5188 8.52794 57.0399 8.47157C56.8639 8.45651 56.687 8.48646 56.5252 8.55872C56.3633 8.63099 56.2215 8.7433 56.1126 8.88556C56.0287 8.97653 55.965 9.08497 55.9258 9.20348C55.8866 9.32199 55.873 9.44776 55.8857 9.57218C55.9088 9.82681 55.9899 10.0724 56.1224 10.2891C56.2606 10.5213 56.4579 10.8243 56.7242 11.1878C56.9883 11.5319 57.2257 11.8965 57.4345 12.2783C57.5987 12.5672 57.6902 12.8934 57.7009 13.2274C57.7015 13.6016 57.5641 13.9623 57.3161 14.2372C57.1003 14.5073 56.8124 14.7073 56.4875 14.8127C56.1304 14.9231 55.7495 14.9231 55.3924 14.8127C54.9284 14.6589 54.4991 14.4117 54.1297 14.0857C53.7315 13.731 53.3975 13.3071 53.1432 12.8336V12.8336Z" fill="#303030"/>
<path d="M63.0674 14.3079L61.6765 12.2884L62.1894 11.9148L65.3956 16.6L64.8826 16.9736L63.4916 14.9541L58.3421 18.6396L57.9277 18.0237L63.0674 14.3079Z" fill="#303030"/>
<path d="M60.8577 22.608C61.0338 21.9977 61.376 21.4514 61.8442 21.0328C62.3023 20.6129 62.8603 20.3239 63.4621 20.1947C64.0756 20.0506 64.7154 20.0749 65.3167 20.2654C65.8971 20.4618 66.4174 20.8098 66.8261 21.2751C67.2511 21.7755 67.5402 22.3814 67.6646 23.0321C67.828 23.6709 67.828 24.342 67.6646 24.9809C67.4837 25.5888 67.1423 26.1339 66.6781 26.5561C66.2074 26.9873 65.6356 27.2864 65.0185 27.4244C64.4013 27.5625 63.7598 27.5346 63.1563 27.3437C62.5714 27.1568 62.0489 26.8072 61.6469 26.3339C61.2239 25.8361 60.9349 25.234 60.8084 24.5871C60.6577 23.9341 60.6747 23.2523 60.8577 22.608V22.608ZM62.15 25.8189C62.4794 26.2029 62.9062 26.486 63.3832 26.6368C63.8748 26.7828 64.3943 26.8001 64.8941 26.6872C65.394 26.5743 65.8581 26.3348 66.244 25.9906C66.6082 25.6477 66.8771 25.2122 67.0234 24.7284C67.1609 24.2176 67.1744 23.6801 67.0627 23.1627C66.9509 22.6453 66.7173 22.1637 66.3822 21.7598C66.0383 21.374 65.5984 21.0913 65.1096 20.9419C64.6118 20.8066 64.0881 20.8066 63.5903 20.9419C63.0881 21.0406 62.6231 21.282 62.2487 21.6386C61.8812 21.9827 61.6119 22.4225 61.4693 22.9109C61.3354 23.4236 61.3354 23.9633 61.4693 24.476C61.5774 24.977 61.8121 25.4401 62.15 25.8189V25.8189Z" fill="#303030"/>
<path d="M60.108 34.331L62.663 33.3213C62.663 33.1395 62.7222 32.9578 62.7715 32.7659L63.2549 30.9383L61.1635 30.3829L61.351 29.666L68.0198 31.4936L67.3489 34.0483C67.1978 34.7937 66.7921 35.4596 66.2046 35.9264C65.9346 36.1183 65.625 36.2436 65.2998 36.2927C64.9746 36.3417 64.6428 36.3131 64.3302 36.2091C63.8542 36.1034 63.4276 35.8347 63.1209 35.4474C62.8142 35.06 62.6457 34.5772 62.6433 34.0786L59.9205 35.0883L60.108 34.331ZM63.4128 34.6137C63.5283 34.8283 63.6851 35.0168 63.8736 35.1678C64.0622 35.3188 64.2786 35.4292 64.5099 35.4924C64.7412 35.5556 64.9826 35.5702 65.2196 35.5355C65.4566 35.5008 65.6842 35.4173 65.8889 35.2903C66.3243 34.9323 66.6215 34.4278 66.7274 33.8665L67.201 32.049L63.8567 31.1301L63.3832 32.9477C63.2012 33.4893 63.2117 34.0792 63.4128 34.6137V34.6137Z" fill="#303030"/>
<path d="M56.5663 40.8337L56.0632 40.4399L59.0228 36.4514L64.5275 40.7226L61.6666 44.5899L61.1635 44.1961L63.5804 40.9346L61.6074 39.4099L59.447 42.3281L58.9537 41.9444L61.1635 39.0262L59.1214 37.441L56.5663 40.8337Z" fill="#303030"/>
<path d="M54.2579 48.8814L52.8472 48.9622V48.4776L54.2579 48.4675L53.4983 47.2659L53.8831 47.0134L54.6328 48.2251L55.2444 46.8721L55.6686 47.1043L54.9978 48.3766L56.4085 48.2958V48.7906H54.9781L55.7377 49.9922L55.353 50.2446L54.6032 49.0329L53.9521 50.3456L53.5378 50.1032L54.2579 48.8814Z" fill="#303030"/>
<path d="M41.4334 48.0735L42.627 48.7501C42.8272 48.3566 43.1065 48.011 43.4465 47.736C43.7866 47.461 44.1798 47.2629 44.6001 47.1547C44.9921 47.0295 45.4045 46.9849 45.8135 47.0234C46.1683 47.0513 46.5092 47.1769 46.8 47.3869C47.0628 47.5897 47.2562 47.8725 47.3524 48.1947C47.4713 48.5933 47.4504 49.0219 47.2932 49.4064C47.0457 49.9288 46.712 50.4036 46.3067 50.8099C46.632 50.9888 46.9336 51.2094 47.2044 51.4663C47.3905 51.6631 47.529 51.9016 47.6089 52.163C47.6595 52.3667 47.6626 52.5797 47.6181 52.7849C47.5735 52.9901 47.4825 53.1817 47.3524 53.3444C47.0891 53.7327 46.6961 54.0093 46.2475 54.1219C45.8536 54.2756 45.4182 54.2756 45.0243 54.1219C44.8491 54.0447 44.6938 53.9271 44.5705 53.7782C44.4473 53.6293 44.3595 53.4531 44.314 53.2636C44.2105 52.9303 44.2352 52.5691 44.383 52.2538C44.6095 51.7948 44.9058 51.3756 45.261 51.0119L42.8835 49.6588C42.7928 50.1343 42.7729 50.6211 42.8243 51.1027H42.2226C42.1821 50.5097 42.249 49.914 42.4199 49.3458L41.1769 48.639L41.4334 48.0735ZM43.1499 49.0833L45.7641 50.5676C46.1067 50.2327 46.3904 49.8399 46.6027 49.4064C46.7111 49.1136 46.7111 48.7904 46.6027 48.4976C46.5579 48.3227 46.4714 48.1619 46.3509 48.0297C46.2303 47.8975 46.0795 47.7981 45.9121 47.7403C45.5026 47.5987 45.0589 47.5987 44.6494 47.7403C44.3147 47.8307 44.0035 47.9951 43.7376 48.2218C43.4717 48.4486 43.2576 48.7323 43.1104 49.053L43.1499 49.0833ZM46.8592 53.1222C46.9236 53.0106 46.964 52.8862 46.9776 52.7574C46.9912 52.6285 46.9778 52.4981 46.9381 52.375C46.8776 52.1756 46.7691 51.995 46.6224 51.8499C46.3713 51.6331 46.0965 51.4468 45.8036 51.2946C45.5045 51.5973 45.2428 51.9364 45.0243 52.3043C44.905 52.5337 44.8767 52.8014 44.9453 53.0515C44.9766 53.1671 45.0315 53.2745 45.1063 53.3668C45.1811 53.459 45.2742 53.534 45.3794 53.5867C45.6306 53.6836 45.9076 53.6836 46.1587 53.5867C46.427 53.5135 46.6611 53.3453 46.8197 53.1121L46.8592 53.1222Z" fill="#303030"/>
<path d="M29.4078 55.8587L29.5459 48.7905H30.2463L30.1378 54.4451L32.9395 49.7397H33.2848L35.9089 54.5258L36.0075 48.9016H36.7079L36.5797 55.9698H35.9779L33.0776 50.6888L30.0095 55.8688L29.4078 55.8587Z" fill="#303030"/>
<path d="M25.9747 48.4673C26.4259 48.9074 26.7487 49.4671 26.9072 50.084C27.0657 50.7008 27.0537 51.3507 26.8725 51.961C26.7104 52.5859 26.3866 53.1545 25.9353 53.6069C25.4967 54.0481 24.9467 54.3558 24.347 54.4954C23.7144 54.6415 23.0558 54.6207 22.4332 54.4348C21.8127 54.2797 21.2418 53.9632 20.7758 53.516C20.3315 53.0815 20.0138 52.5292 19.8584 51.9206C19.7067 51.2915 19.7179 50.6328 19.8909 50.0095C20.0639 49.3862 20.3927 48.8198 20.8449 48.3663C21.2757 47.9262 21.814 47.6124 22.4036 47.4576C23.033 47.3119 23.6882 47.3327 24.3075 47.5181C24.9345 47.6808 25.5091 48.0079 25.9747 48.4673V48.4673ZM22.6108 48.1139C22.1282 48.2289 21.6871 48.4809 21.3382 48.8409C20.9748 49.2114 20.7158 49.6753 20.5884 50.1838C20.4508 50.6892 20.4508 51.2234 20.5884 51.7287C20.7048 52.2204 20.9544 52.6684 21.3086 53.0212C21.68 53.393 22.1386 53.6607 22.6403 53.7987C23.142 53.9295 23.6677 53.9295 24.1694 53.7987C24.6524 53.6772 25.095 53.4262 25.4519 53.0717C25.8134 52.6997 26.0721 52.2363 26.2016 51.7287C26.3395 51.22 26.3395 50.6825 26.2016 50.1738C26.0754 49.684 25.8233 49.2377 25.4716 48.8813C25.0982 48.509 24.6354 48.2443 24.13 48.1139C23.6329 47.9732 23.1078 47.9732 22.6108 48.1139V48.1139Z" fill="#303030"/>
<path d="M15.1429 43.4186L15.4092 46.1954C15.5785 46.2693 15.7432 46.3536 15.9025 46.4478L17.5105 47.3969L18.5957 45.4381L19.2369 45.8117L15.7841 51.9004L13.5349 50.5776C12.8701 50.2357 12.3456 49.6631 12.0551 48.962C11.9479 48.6462 11.9117 48.3096 11.9493 47.9774C11.9869 47.6452 12.0972 47.326 12.2722 47.0435C12.5015 46.601 12.865 46.2467 13.308 46.0338C13.7579 45.843 14.2555 45.8041 14.7286 45.9227L14.4425 42.9541L15.1429 43.4186ZM14.0183 46.6093C13.7866 46.6688 13.569 46.7756 13.3785 46.9232C13.1881 47.0707 13.0287 47.2561 12.9098 47.4682C12.791 47.6804 12.7153 47.9148 12.687 48.1576C12.6588 48.4004 12.6788 48.6465 12.7457 48.8813C12.9769 49.4039 13.3778 49.8284 13.8802 50.0828L15.4684 51.0219L17.1948 47.9927L15.6065 47.0536C15.15 46.7035 14.588 46.5284 14.0183 46.5589V46.6093Z" fill="#303030"/>
<path d="M9.30279 38.6829L9.74672 38.2285L13.1502 41.8131L8.21763 46.7406L4.93256 43.2671L5.38635 42.8127L8.17817 45.7511L9.8651 44.0042L7.41856 41.3991L7.89208 40.9346L10.3879 43.5599L12.2229 41.7323L9.30279 38.6829Z" fill="#303030"/>
<path d="M1.97304 34.7147L2.2098 33.3213L2.67346 33.392L2.4071 34.8258L3.71916 34.331L3.877 34.7753L2.54521 35.2398L3.64024 36.1889L3.32455 36.5524L2.26899 35.5427L2.02236 36.9765L1.54884 36.8857L1.82506 35.4518L0.50314 35.9365L0.355164 35.5427L1.67708 35.0681L0.58206 34.1291L0.907608 33.7656L1.97304 34.7147Z" fill="#303030"/>
</g>
<defs>
<clipPath id="clip0_1_6">
<rect width="68" height="56" fill="white"/>
</clipPath>
</defs>
</svg>
