<svg aria-hidden="true" style="position:absolute;width:0;height:0;overflow:hidden" xmlns="http://www.w3.org/2000/svg"><defs><symbol id="icon-facebook" viewBox="0 0 32 32"><path d="M21.329 5.313h2.921V.225C23.746.156 22.013 0 19.994 0c-4.212 0-7.097 2.649-7.097 7.519V12H8.249v5.688h4.648V32h5.699V17.689h4.46l.708-5.688h-5.169V8.082c.001-1.644.444-2.769 2.735-2.769z"/></symbol><symbol id="icon-instagram" viewBox="0 0 32 32"><path d="M31.969 9.408c-.075-1.7-.35-2.869-.744-3.882a7.803 7.803 0 0 0-1.85-2.838A7.867 7.867 0 0 0 26.543.844C25.524.45 24.361.175 22.661.1 20.948.019 20.404 0 16.06 0s-4.888.019-6.595.094c-1.7.075-2.869.35-3.882.744a7.803 7.803 0 0 0-2.838 1.85A7.867 7.867 0 0 0 .901 5.52C.507 6.539.232 7.702.157 9.402c-.081 1.713-.1 2.257-.1 6.601s.019 4.888.094 6.595c.075 1.7.35 2.869.744 3.882a7.895 7.895 0 0 0 1.85 2.838 7.867 7.867 0 0 0 2.832 1.844c1.019.394 2.182.669 3.882.744 1.706.075 2.25.094 6.595.094s4.888-.019 6.595-.094c1.7-.075 2.869-.35 3.882-.744a8.184 8.184 0 0 0 4.682-4.682c.394-1.019.669-2.182.744-3.882.075-1.707.094-2.251.094-6.595s-.006-4.888-.081-6.595zm-2.882 13.065c-.069 1.563-.331 2.407-.55 2.969a5.31 5.31 0 0 1-3.038 3.038c-.563.219-1.413.481-2.969.55-1.688.075-2.194.094-6.464.094s-4.782-.019-6.464-.094c-1.563-.069-2.407-.331-2.969-.55a4.926 4.926 0 0 1-1.838-1.194 4.974 4.974 0 0 1-1.194-1.838c-.219-.563-.481-1.413-.55-2.969-.075-1.688-.094-2.194-.094-6.464s.019-4.782.094-6.464c.069-1.563.331-2.407.55-2.969a4.868 4.868 0 0 1 1.2-1.838A4.974 4.974 0 0 1 6.639 3.55c.563-.219 1.413-.481 2.969-.55 1.688-.075 2.194-.094 6.464-.094 4.276 0 4.782.019 6.464.094 1.563.069 2.407.331 2.969.55a4.914 4.914 0 0 1 1.838 1.194 4.974 4.974 0 0 1 1.194 1.838c.219.563.481 1.413.55 2.969.075 1.688.094 2.194.094 6.464s-.019 4.77-.094 6.458z"/><path d="M16.059 7.783c-4.538 0-8.22 3.682-8.22 8.22s3.682 8.22 8.22 8.22c4.539 0 8.22-3.682 8.22-8.22s-3.682-8.22-8.22-8.22zm0 13.552a5.333 5.333 0 0 1 0-10.664 5.333 5.333 0 0 1 0 10.664zM26.524 7.458a1.919 1.919 0 1 1-3.838 0 1.919 1.919 0 0 1 3.838 0z"/></symbol><symbol id="icon-linkedin" viewBox="0 0 32 32"><path d="M31.992 32v-.001H32V20.263c0-5.741-1.236-10.164-7.948-10.164-3.227 0-5.392 1.771-6.276 3.449h-.093v-2.913h-6.364v21.364h6.627V21.42c0-2.785.528-5.479 3.977-5.479 3.399 0 3.449 3.179 3.449 5.657v10.401h6.62zM.528 10.636h6.635V32H.528V10.636zM3.843 0C1.722 0 0 1.721 0 3.843s1.721 3.879 3.843 3.879c2.121 0 3.843-1.757 3.843-3.879A3.846 3.846 0 0 0 3.843 0z"/></symbol><symbol id="icon-logo" viewBox="0 0 39 32"><path d="m22.07 9.734-.738-.577a.554.554 0 0 0-.789.08L10.323 21.25l.158.179 2.531-2.389c-.084-.035-.154-.099-.197-.181s-.057-.177-.039-.268a.39.39 0 0 1 .616-.242c.066.05.114.12.139.2l3.337-3.168a.284.284 0 0 1 .36 0l.169.127a.28.28 0 0 0 .378-.046l4.363-5.008a.49.49 0 0 0 .067-.57.485.485 0 0 0-.134-.151z"/><path d="M26.872 13.115a22.58 22.58 0 0 1-7.396 3.549 39.175 39.175 0 0 1-8.044 1.223c.055.41.153.812.293 1.2 1.533 1.419 13.078-1.004 15.333-3.808.479-.583-.186-2.164-.186-2.164zm-13.709 5.926a.377.377 0 0 1-.354-.242.4.4 0 0 1 .083-.428.38.38 0 0 1 .59.06.4.4 0 0 1-.171.582.375.375 0 0 1-.148.028zM2.255 12.284l.09-.398 1.466.34c.121.229.196.48.22.739.028.274.011.551-.051.819-.073.372-.24.719-.485 1.004-.233.27-.533.469-.868.577a2.007 2.007 0 0 1-1.065.04 1.961 1.961 0 0 1-.941-.508 1.915 1.915 0 0 1-.536-.906 2.235 2.235 0 0 1 0-1.154 2.5 2.5 0 0 1 .321-.796c.144-.222.337-.406.564-.537l.203.317c-.194.122-.361.285-.489.478s-.215.412-.255.641c-.07.298-.064.61.017.906.076.281.226.534.434.733.214.212.481.358.772.421.282.081.58.081.862 0 .27-.091.513-.252.705-.467.197-.232.333-.512.395-.814a1.807 1.807 0 0 0-.068-1.102l-1.291-.335zM5.446 8.655l-1.313 1.794.564 1.033-.259.358-2.086-3.895.242-.34 4.245.935-.265.358-1.127-.242zm-.373-.092-2.255-.519 1.127 2.071 1.127-1.552zM5.074 4.933l.338-.26L7.56 7.616 9.33 6.26l.214.294-2.103 1.61-2.368-3.231zM8.625 2.527l.378-.173 1.488 3.335 2.012-.935.147.335-2.39 1.114-1.635-3.675zM16.055 3.854l.085.364-2.717.652-.902-3.935 2.638-.629.079.358-2.255.537.321 1.396 1.984-.479.085.358-1.99.473.338 1.46 2.334-.554zM19.927 3.999l-.941-1.269c-.105.006-.21.006-.316 0l-1.06.035.04 1.281h-.417l-.13-4.039 1.5-.006c.424-.04.848.077 1.195.329a1.273 1.273 0 0 1 .462 1.004c.016.285-.057.568-.209.808a1.31 1.31 0 0 1-.654.49l.986 1.35-.457.017zM19.533 2.1a.926.926 0 0 0 .288-.756.95.95 0 0 0-.332-.738 1.35 1.35 0 0 0-.885-.237l-1.071.04.068 2.019 1.049-.035c.32.012.633-.092.885-.294zM22.91 2.925l-.203 1.379-.412-.063.209-1.356L21.337 0l.44.069.998 2.458L24.466.49l.395.087-1.95 2.348zM28.485 2.683l.49.652-.214.173-.49-.669-.31.756-.237-.104.316-.756-.812.11v-.277l.8-.092-.496-.652.22-.173.434.658.304-.762.242.104-.288.773.812-.115v.283l-.772.092zM30.368 7.333a1.619 1.619 0 0 1-.242-.698l.333-.15c.025.229.098.449.214.646.126.221.29.417.485.577.201.197.457.324.733.363a.607.607 0 0 0 .53-.225.535.535 0 0 0 .13-.392 1.092 1.092 0 0 0-.135-.398 6.302 6.302 0 0 0-.344-.514 5.182 5.182 0 0 1-.406-.635 1.182 1.182 0 0 1-.147-.542.86.86 0 0 1 .22-.577c.123-.152.285-.266.468-.329.204-.06.421-.06.626 0 .263.088.507.229.716.415a2.6 2.6 0 0 1 .457.508c.12.176.209.371.265.577l-.321.173a2.064 2.064 0 0 0-.248-.542 2.067 2.067 0 0 0-.378-.398 1.24 1.24 0 0 0-.727-.352.614.614 0 0 0-.53.237c-.048.052-.084.114-.107.182s-.03.14-.023.211c.013.146.06.286.135.41.079.133.192.306.344.514.151.197.287.405.406.623.094.165.146.351.152.542a.86.86 0 0 1-.22.577 1.002 1.002 0 0 1-1.1.329 2.096 2.096 0 0 1-.722-.415 2.62 2.62 0 0 1-.564-.716zM36.038 8.176l-.795-1.154.293-.213 1.832 2.677-.293.213-.795-1.154-2.943 2.106-.237-.352 2.937-2.123zM34.776 12.919c.101-.349.296-.661.564-.9.262-.24.581-.405.925-.479a2.008 2.008 0 0 1 1.06.04c.332.112.629.311.862.577.243.286.408.632.479 1.004.093.365.093.748 0 1.114a1.97 1.97 0 0 1-.564.9c-.269.246-.596.417-.948.496s-.719.063-1.064-.046a1.886 1.886 0 0 1-.862-.577 2.185 2.185 0 0 1-.479-.998 2.28 2.28 0 0 1 .028-1.131zm.738 1.835c.188.219.432.381.705.467a1.718 1.718 0 0 0 1.634-.369 1.64 1.64 0 0 0 .445-.721 1.894 1.894 0 0 0-.367-1.697 1.606 1.606 0 0 0-.727-.467 1.66 1.66 0 0 0-.868 0 1.54 1.54 0 0 0-.767.398c-.21.197-.364.448-.445.727a1.759 1.759 0 0 0 0 .894c.062.286.196.551.389.767zM34.347 19.618l1.46-.577c0-.104.034-.208.062-.317l.276-1.044-1.195-.317.107-.41 3.811 1.044-.383 1.46a1.832 1.832 0 0 1-.654 1.073 1.194 1.194 0 0 1-1.071.161c-.272-.06-.516-.214-.691-.435s-.272-.497-.273-.782l-1.556.577.107-.433zm1.889.161c.066.123.156.23.263.317a.999.999 0 0 0 1.152.071c.249-.205.419-.493.479-.814l.271-1.039-1.911-.525-.271 1.039a1.42 1.42 0 0 0 .017.952zM32.324 23.334l-.288-.225 1.691-2.279 3.146 2.441-1.635 2.21-.288-.225 1.381-1.864-1.127-.871-1.234 1.668-.282-.219 1.263-1.668-1.167-.906-1.46 1.939zM31.005 27.932l-.806.046v-.277l.806-.006-.434-.687.22-.144.428.692.349-.773.242.133-.383.727.806-.046v.283h-.817l.434.687-.22.144-.428-.692-.372.75-.237-.139.412-.698zM23.676 27.471l.682.387c.114-.225.274-.422.468-.579s.419-.27.659-.332c.224-.072.46-.097.693-.075.203.016.398.088.564.208.15.116.261.277.316.462a1.04 1.04 0 0 1-.034.692c-.141.299-.332.57-.564.802.186.102.358.228.513.375.106.112.186.249.231.398a.774.774 0 0 1-.147.675c-.15.222-.375.38-.631.444a.958.958 0 0 1-.699 0c-.1-.044-.189-.111-.259-.196s-.121-.186-.147-.294a.805.805 0 0 1 .039-.577c.129-.262.299-.502.502-.71l-1.359-.773c-.052.272-.063.55-.034.825h-.344a2.816 2.816 0 0 1 .113-1.004l-.71-.404.147-.323zm.981.577 1.494.848a2.39 2.39 0 0 0 .479-.664.747.747 0 0 0 0-.519.626.626 0 0 0-.395-.432 1.103 1.103 0 0 0-.722 0 1.357 1.357 0 0 0-.879.75l.023.017zm2.12 2.308a.531.531 0 0 0 .045-.426.725.725 0 0 0-.18-.3c-.143-.124-.3-.23-.468-.317a3.01 3.01 0 0 0-.445.577.59.59 0 0 0-.045.427.489.489 0 0 0 .248.306.62.62 0 0 0 .445 0 .676.676 0 0 0 .378-.271l.023.006zM16.804 31.919l.079-4.039h.4l-.062 3.231 1.601-2.689h.197l1.5 2.735.056-3.214h.4l-.073 4.039h-.344l-1.657-3.018-1.753 2.96-.344-.006zM14.843 27.696a2.005 2.005 0 0 1 .513 1.997 2.073 2.073 0 0 1-.536.941 1.887 1.887 0 0 1-.908.508 2.126 2.126 0 0 1-1.094-.035 2.11 2.11 0 0 1-.947-.525 1.948 1.948 0 0 1-.524-.912 2.172 2.172 0 0 1 .564-2.031c.246-.252.554-.431.891-.519.36-.083.734-.071 1.088.035.358.093.687.28.953.542zm-1.923-.202a1.5 1.5 0 0 0-.727.415 1.67 1.67 0 0 0-.428.767 1.675 1.675 0 0 0 0 .883c.066.281.209.537.412.739.212.212.474.365.761.444.287.075.587.075.874 0 .276-.069.529-.213.733-.415.207-.213.354-.477.428-.767a1.697 1.697 0 0 0 0-.889 1.631 1.631 0 0 0-1.184-1.178 1.6 1.6 0 0 0-.868 0zM8.653 24.811l.152 1.587c.097.042.191.09.282.144l.919.542.62-1.119.366.213-1.973 3.479-1.285-.756a1.82 1.82 0 0 1-.846-.923 1.294 1.294 0 0 1 .124-1.097c.131-.253.339-.455.592-.577.257-.109.541-.131.812-.064l-.164-1.696.4.265zm-.643 1.823a1.016 1.016 0 0 0-.634.49 1.049 1.049 0 0 0-.093.808c.132.299.361.541.648.687l.908.537.986-1.731-.908-.537c-.261-.2-.582-.3-.908-.283v.029zM5.316 22.105l.254-.26 1.945 2.048-2.819 2.816-1.877-1.985.259-.26 1.595 1.679.964-.998-1.398-1.489.271-.265 1.426 1.5 1.049-1.044-1.669-1.742zM1.127 19.837l.135-.796.265.04-.152.819.75-.283.09.254-.761.265.626.542-.18.208-.603-.577-.141.819-.271-.052.158-.819-.755.277-.085-.225.755-.271-.626-.537.186-.208.609.542z"/></symbol><symbol id="icon-mail" viewBox="0 0 32 32"><path fill="none" stroke="#9da4bd" style="stroke:var(--color2, #9da4bd)" stroke-linejoin="round" stroke-linecap="round" stroke-width="1.333" d="M6.4 6.667h19.2c1.32 0 2.4 1.05 2.4 2.333v14c0 1.283-1.08 2.333-2.4 2.333H6.4C5.08 25.333 4 24.283 4 23V9c0-1.283 1.08-2.333 2.4-2.333z"/><path fill="none" stroke="#9da4bd" style="stroke:var(--color2, #9da4bd)" stroke-linejoin="round" stroke-linecap="round" stroke-width="1.333" d="m26.667 9.333-10.667 8-10.667-8"/></symbol><symbol id="icon-map-pin" viewBox="0 0 32 32"><path fill="none" stroke="#9da4bd" style="stroke:var(--color2, #9da4bd)" stroke-linejoin="round" stroke-linecap="round" stroke-width="1.333" d="M26.667 13.818C26.667 21.454 16 28 16 28S5.333 21.455 5.333 13.818C5.333 8.396 10.109 4 16 4s10.667 4.396 10.667 9.818v0z"/><path fill="none" stroke="#9da4bd" style="stroke:var(--color2, #9da4bd)" stroke-linejoin="round" stroke-linecap="round" stroke-width="1.333" d="M16 18.667a4 4 0 1 0 0-8 4 4 0 0 0 0 8z"/></symbol><symbol id="icon-phone" viewBox="0 0 32 32"><path fill="none" stroke="#9da4bd" style="stroke:var(--color2, #9da4bd)" stroke-linejoin="round" stroke-linecap="round" stroke-width="1.333" d="M26.666 21.337v3.218a2.146 2.146 0 0 1-2.338 2.145 21.239 21.239 0 0 1-9.257-3.293 20.914 20.914 0 0 1-6.436-6.436 21.221 21.221 0 0 1-3.293-9.3 2.144 2.144 0 0 1 2.134-2.338h3.218a2.144 2.144 0 0 1 2.145 1.845c.136 1.03.388 2.041.751 3.014a2.144 2.144 0 0 1-.483 2.263l-1.362 1.362a17.162 17.162 0 0 0 6.436 6.436l1.362-1.362a2.146 2.146 0 0 1 2.263-.483c.973.363 1.984.615 3.014.751a2.144 2.144 0 0 1 1.845 2.177z"/></symbol><symbol id="icon-twitter" viewBox="0 0 32 32"><path d="M32 6.078c-1.19.522-2.458.868-3.78 1.036a6.523 6.523 0 0 0 2.886-3.626 13.11 13.11 0 0 1-4.16 1.588A6.574 6.574 0 0 0 22.154 3c-3.632 0-6.556 2.948-6.556 6.562 0 .52.044 1.02.152 1.496-5.454-.266-10.28-2.88-13.522-6.862a6.605 6.605 0 0 0-.898 3.316 6.57 6.57 0 0 0 2.914 5.452 6.479 6.479 0 0 1-2.964-.808v.072c0 3.188 2.274 5.836 5.256 6.446a6.548 6.548 0 0 1-1.72.216 5.8 5.8 0 0 1-1.242-.112c.85 2.598 3.262 4.508 6.13 4.57a13.182 13.182 0 0 1-8.134 2.798c-.538 0-1.054-.024-1.57-.09A18.469 18.469 0 0 0 10.064 29c12.072 0 18.672-10 18.672-18.668 0-.29-.01-.57-.024-.848A13.087 13.087 0 0 0 32 6.078z"/></symbol></defs></svg>